#!OML:ASF G:\JayActor3\Patient Classification 1\Patient 1\Session 6\male.ASF
:FULLY-SPECIFIED
:DEGREES
1490
root 8.99085 15.2514 -3.05857 28.4099 -53.1595 -7.6789
lowerback 34.3324 -0.724144 0.539171
upperback 16.8708 -2.04427 -2.5549
thorax 0.940266 -1.2926 -2.3635
lowerneck -9.79073 0.814278 -0.151249
upperneck 20.3126 0.236382 3.32898
head 7.8733 0.33673 1.13589
rclavicle 9.54166e-015 6.67916e-014
rhumerus -3.62111 37.6435 -82.2348
rradius 123.372
rwrist 11.3545
rhand -22.5677 -19.4688
rfingers 7.12502
rthumb 3.86057 -49.4136
lclavicle 9.54166e-015 6.67916e-014
lhumerus 9.9112 -36.323 63.4626
lradius 117.514
lwrist 32.3261
lhand -39.1389 5.63666
lfingers 7.12502
lthumb -12.1376 35.2646
rfemur -62.6202 -5.38555 28.7802
rtibia 63.4284
rfoot -24.4938 -16.2329
rtoes 4.02057
lfemur -61.9112 9.90945 -20.8191
ltibia 58.0133
lfoot -17.8527 1.2072
ltoes 3.09971
1491
root 8.98824 15.2607 -3.06129 28.2901 -53.1383 -7.75198
lowerback 34.4075 -0.753552 0.617434
upperback 16.853 -2.06116 -2.6089
thorax 0.889605 -1.29359 -2.45397
lowerneck -9.99908 0.791727 -0.0187211
upperneck 20.2034 0.18721 3.33654
head 7.87665 0.326843 1.11193
rclavicle -3.97569e-014 -1.15295e-013
rhumerus -4.58941 37.5871 -83.4476
rradius 123.527
rwrist 12.1207
rhand -23.5219 -18.7998
rfingers 7.12502
rthumb 2.93909 -48.7593
lclavicle -3.97569e-014 -1.15295e-013
lhumerus 8.9571 -36.5076 64.6129
lradius 117.72
lwrist 32.7965
lhand -39.3706 5.70084
lfingers 7.12502
lthumb -12.361 35.3154
rfemur -62.3059 -5.27146 28.761
rtibia 63.2719
rfoot -24.5156 -16.3778
rtoes 4.022
lfemur -61.6061 9.88205 -20.6921
ltibia 57.8647
lfoot -17.8378 1.2642
ltoes 3.06221
1492
root 8.98652 15.2695 -3.06464 28.1609 -53.1131 -7.80298
lowerback 34.4624 -0.774569 0.697266
upperback 16.8432 -2.06699 -2.65724
thorax 0.855258 -1.28925 -2.54325
lowerneck -10.2035 0.764301 0.114946
upperneck 20.1793 0.132456 3.31387
head 7.90757 0.31169 1.07791
rclavicle -5.725e-014 -5.56597e-015
rhumerus -5.39724 37.5509 -84.4903
rradius 123.598
rwrist 12.7663
rhand -24.6922 -18.2459
rfingers 7.12502
rthumb 1.80884 -48.2179
lclavicle -5.725e-014 -5.56597e-015
lhumerus 8.22523 -36.7606 65.5603
lradius 117.855
lwrist 33.2869
lhand -39.7325 5.6264
lfingers 7.12502
lthumb -12.7099 35.2196
rfemur -62.0139 -5.17892 28.7401
rtibia 63.1231
rfoot -24.5359 -16.5098
rtoes 4.04394
lfemur -61.3152 9.83767 -20.5773
ltibia 57.715
lfoot -17.821 1.32818
ltoes 3.02313
1493
root 8.98586 15.2777 -3.06839 28.0199 -53.0862 -7.81842
lowerback 34.4899 -0.786684 0.761868
upperback 16.842 -2.0656 -2.69674
thorax 0.841004 -1.28261 -2.61828
lowerneck -10.4036 0.73423 0.254014
upperneck 20.2291 0.0722107 3.27333
head 7.96235 0.292794 1.03701
rclavicle 8.5875e-014 5.08889e-014
rhumerus -6.05334 37.5498 -85.3631
rradius 123.597
rwrist 13.2887
rhand -26.0994 -17.8267
rfingers 7.12502
rthumb 0.44978 -47.8059
lclavicle 8.5875e-014 5.08889e-014
lhumerus 7.6847 -37.0472 66.3477
lradius 117.97
lwrist 33.7123
lhand -40.1759 5.4196
lfingers 7.12502
lthumb -13.1373 34.9858
rfemur -61.7554 -5.11088 28.7081
rtibia 62.9852
rfoot -24.5552 -16.6253
rtoes 4.06801
lfemur -61.0479 9.77596 -20.4883
ltibia 57.5638
lfoot -17.8002 1.39983
ltoes 2.97518
1494
root 8.98641 15.2851 -3.0722 27.8717 -53.0576 -7.79723
lowerback 34.4882 -0.793649 0.811247
upperback 16.8489 -2.06146 -2.72733
thorax 0.846578 -1.27578 -2.67768
lowerneck -10.5951 0.700314 0.380277
upperneck 20.3277 0.00642706 3.23027
head 8.03184 0.270192 0.997058
rclavicle 9.22361e-014 -4.81059e-014
rhumerus -6.58192 37.5904 -86.0826
rradius 123.54
rwrist 13.6661
rhand -27.7588 -17.5501
rfingers 7.12502
rthumb -1.15295 -47.5268
lclavicle 9.22361e-014 -4.81059e-014
lhumerus 7.29366 -37.3355 67.0095
lradius 118.122
lwrist 33.972
lhand -40.6315 5.14459
lfingers 7.12502
lthumb -13.5765 34.6819
rfemur -61.5371 -5.07001 28.6648
rtibia 62.8612
rfoot -24.5702 -16.7232
rtoes 4.094
lfemur -60.812 9.69883 -20.4289
ltibia 57.4131
lfoot -17.7757 1.47585
ltoes 2.93017
1495
root 8.98808 15.2916 -3.07588 27.7193 -53.0297 -7.73661
lowerback 34.4568 -0.795912 0.835751
upperback 16.8609 -2.05756 -2.74687
thorax 0.869233 -1.27091 -2.71319
lowerneck -10.7641 0.662817 0.482816
upperneck 20.4413 -0.0616519 3.19039
head 8.10214 0.244906 0.961713
rclavicle -1.11319e-014 -1.47101e-014
rhumerus -7.00452 37.6901 -86.6615
rradius 123.436
rwrist 13.8697
rhand -29.6962 -17.3667
rfingers 7.12502
rthumb -3.02404 -47.325
lclavicle -1.11319e-014 -1.47101e-014
lhumerus 7.00831 -37.6008 67.5804
lradius 118.346
lwrist 33.9758
lhand -41.0415 4.86011
lfingers 7.12502
lthumb -13.9717 34.3706
rfemur -61.3649 -5.05438 28.6061
rtibia 62.7536
rfoot -24.5837 -16.7977
rtoes 4.1211
lfemur -60.6131 9.60649 -20.4017
ltibia 57.2661
lfoot -17.751 1.55356
ltoes 2.89992
1496
root 8.99057 15.297 -3.07937 27.5765 -53.0044 -7.64861
lowerback 34.3958 -0.794576 0.834692
upperback 16.8747 -2.0552 -2.75415
thorax 0.905136 -1.26878 -2.72265
lowerneck -10.9048 0.623426 0.549845
upperneck 20.5478 -0.127386 3.16013
head 8.16479 0.218677 0.935384
rclavicle -1.11319e-014 4.77083e-015
rhumerus -7.3355 37.8676 -87.1136
rradius 123.285
rwrist 13.9023
rhand -31.9445 -17.2493
rfingers 7.12502
rthumb -5.19512 -47.1656
lclavicle -1.11319e-014 4.77083e-015
lhumerus 6.79853 -37.8336 68.0813
lradius 118.653
lwrist 33.6926
lhand -41.3718 4.60673
lfingers 7.12502
lthumb -14.2899 34.095
rfemur -61.2405 -5.05504 28.5371
rtibia 62.6621
rfoot -24.5989 -16.8452
rtoes 4.15515
lfemur -60.4584 9.50703 -20.4022
ltibia 57.127
lfoot -17.7254 1.63397
ltoes 2.86272
1497
root 8.99335 15.3016 -3.08259 27.4593 -52.979 -7.55119
lowerback 34.3069 -0.79016 0.811517
upperback 16.8872 -2.05371 -2.74516
thorax 0.95056 -1.2691 -2.70377
lowerneck -11.0139 0.582852 0.584547
upperneck 20.6321 -0.187738 3.1322
head 8.21402 0.192356 0.915351
rclavicle 1.74931e-014 -7.99114e-014
rhumerus -7.57741 38.132 -87.4451
rradius 123.086
rwrist 13.8141
rhand -34.488 -17.1509
rfingers 7.12502
rthumb -7.65063 -46.9925
lclavicle 1.74931e-014 -7.99114e-014
lhumerus 6.64288 -38.0414 68.5262
lradius 119.031
lwrist 33.1589
lhand -41.6124 4.36026
lfingers 7.12502
lthumb -14.5217 33.832
rfemur -61.1608 -5.0657 28.4685
rtibia 62.5834
rfoot -24.6166 -16.8652
rtoes 4.2062
lfemur -60.3495 9.4036 -20.4151
ltibia 57.0001
lfoot -17.701 1.70882
ltoes 2.85325
1498
root 8.99616 15.3055 -3.08546 27.3813 -52.953 -7.46527
lowerback 34.1995 -0.78844 0.781172
upperback 16.8935 -2.05607 -2.72564
thorax 0.996267 -1.27212 -2.6692
lowerneck -11.0918 0.544568 0.589842
upperneck 20.6939 -0.238794 3.10829
head 8.24978 0.168077 0.902143
rclavicle 7.95139e-015 -3.37934e-014
rhumerus -7.7377 38.4691 -87.6811
rradius 122.843
rwrist 13.7488
rhand -37.2332 -17.0143
rfingers 7.12502
rthumb -10.2996 -46.7421
lclavicle 7.95139e-015 -3.37934e-014
lhumerus 6.52168 -38.2415 68.9111
lradius 119.46
lwrist 32.4691
lhand -41.7817 4.08736
lfingers 7.12502
lthumb -14.6849 33.5473
rfemur -61.1182 -5.07974 28.4127
rtibia 62.5132
rfoot -24.6343 -16.8623
rtoes 4.26635
lfemur -60.2842 9.30587 -20.4294
ltibia 56.8883
lfoot -17.6772 1.78327
ltoes 2.81832
1499
root 8.99866 15.3089 -3.08801 27.3509 -52.9279 -7.40949
lowerback 34.0856 -0.7869 0.753074
upperback 16.89 -2.05681 -2.69635
thorax 1.03423 -1.27465 -2.62594
lowerneck -11.1524 0.507846 0.573106
upperneck 20.7478 -0.283473 3.08722
head 8.27954 0.145127 0.894041
rclavicle 3.18055e-015 -3.77691e-014
rhumerus -7.82744 38.8247 -87.843
rradius 122.574
rwrist 13.859
rhand -40.0022 -16.8382
rfingers 7.12502
rthumb -12.9699 -46.4151
lclavicle 3.18055e-015 -3.77691e-014
lhumerus 6.43222 -38.4527 69.2426
lradius 119.908
lwrist 31.7478
lhand -41.9353 3.81597
lfingers 7.12502
lthumb -14.8329 33.2651
rfemur -61.1009 -5.0905 28.3802
rtibia 62.4466
rfoot -24.6463 -16.8425
rtoes 4.32859
lfemur -60.2561 9.2265 -20.4343
ltibia 56.7937
lfoot -17.6516 1.84973
ltoes 2.76394
1500
root 9.00081 15.312 -3.09027 27.3683 -52.9043 -7.39602
lowerback 33.9818 -0.78478 0.738798
upperback 16.8729 -2.05213 -2.65936
thorax 1.05403 -1.27405 -2.58286
lowerneck -11.2073 0.470725 0.54275
upperneck 20.8125 -0.326674 3.06698
head 8.31187 0.121867 0.888653
rclavicle 1.90833e-014 7.15625e-015
rhumerus -7.8703 39.1282 -87.9639
rradius 122.322
rwrist 14.2077
rhand -42.5714 -16.647
rfingers 7.12502
rthumb -15.4456 -46.0499
lclavicle 1.90833e-014 7.15625e-015
lhumerus 6.35318 -38.6876 69.5279
lradius 120.346
lwrist 31.0945
lhand -42.0958 3.58302
lfingers 7.12502
lthumb -14.9875 33.0207
rfemur -61.0964 -5.09397 28.3772
rtibia 62.3796
rfoot -24.6507 -16.8093
rtoes 4.4123
lfemur -60.2542 9.17225 -20.422
ltibia 56.7158
lfoot -17.6236 1.90448
ltoes 2.68882
